<?xml version="1.0" standalone="no"?>
<!DOCTYPE svg PUBLIC "-//W3C//DTD SVG 20010904//EN"
 "http://www.w3.org/TR/2001/REC-SVG-20010904/DTD/svg10.dtd">
<svg version="1.0" xmlns="http://www.w3.org/2000/svg"
 width="700.000000pt" height="700.000000pt" viewBox="0 0 700.000000 700.000000"
 preserveAspectRatio="xMidYMid meet">
<metadata>
Created by potrace 1.14, written by Peter Selinger 2001-2017
</metadata>
<g transform="translate(0.000000,700.000000) scale(0.100000,-0.100000)"
fill="#000000" stroke="none">
<path d="M351 6989 c-169 -33 -309 -177 -341 -350 -7 -36 -9 -1096 -8 -3174
l3 -3120 23 -56 c50 -126 151 -223 274 -266 51 -17 173 -18 3203 -18 l3150 0
56 23 c126 50 223 151 266 274 17 51 18 173 18 3198 0 3025 -1 3147 -18 3198
-43 123 -140 224 -266 274 l-56 23 -3130 1 c-1734 1 -3150 -2 -3174 -7z m3315
-480 c300 -379 353 -462 549 -863 l132 -268 70 128 c257 470 525 792 748 899
101 48 169 59 343 52 217 -8 430 -57 751 -174 125 -45 437 -176 450 -188 3 -4
-7 -16 -24 -28 -59 -44 -242 -192 -350 -285 -423 -363 -782 -746 -993 -1059
-40 -58 -45 -62 -98 -73 -71 -15 -215 -87 -279 -141 -116 -96 -207 -240 -239
-379 -9 -36 -16 -110 -16 -165 0 -123 19 -205 70 -310 81 -167 237 -305 407
-359 51 -17 53 -19 103 -112 95 -175 231 -358 346 -463 98 -90 311 -178 571
-236 179 -40 283 -97 323 -174 18 -37 20 -59 20 -244 0 -221 -4 -245 -56 -306
-15 -18 -45 -42 -68 -54 -40 -21 -52 -22 -444 -27 l-403 -5 532 -650 c293
-357 548 -669 567 -692 l34 -43 -748 0 -749 0 -434 655 -434 655 -26 -37
c-250 -353 -282 -393 -423 -529 -99 -95 -387 -344 -398 -344 -11 0 -301 251
-397 343 -132 127 -238 260 -414 516 l-36 52 -434 -655 -434 -656 -749 0
c-598 0 -746 3 -738 13 6 6 261 318 567 692 l556 680 -403 5 c-392 5 -404 6
-444 27 -47 25 -91 73 -111 120 -9 24 -13 88 -13 238 0 236 6 260 83 316 65
49 117 68 301 114 278 69 447 144 549 243 110 106 237 281 328 449 l50 91 61
21 c129 44 268 150 347 265 44 63 85 156 105 237 20 83 21 243 0 329 -32 139
-123 283 -239 379 -64 54 -208 126 -279 141 -55 11 -55 11 -122 108 -137 198
-308 397 -539 627 -224 222 -520 483 -733 645 -40 30 -72 57 -72 61 0 3 57 31
127 62 462 202 844 307 1124 307 142 0 202 -11 294 -55 227 -109 505 -447 770
-939 l48 -88 137 278 c149 306 211 413 333 579 99 136 369 475 378 475 3 0 78
-90 165 -201z m-1957 -2034 c230 -55 401 -272 401 -510 0 -235 -167 -450 -395
-510 -215 -56 -454 39 -577 229 -108 167 -108 395 0 562 122 189 351 280 571
229z m3829 0 c178 -42 329 -181 383 -354 28 -89 27 -222 0 -312 -67 -215 -277
-369 -504 -369 -288 0 -527 238 -527 525 0 336 319 587 648 510z"/>
<path d="M2684 4651 c-78 -20 -151 -91 -185 -181 -17 -45 -19 -79 -19 -308 l0
-257 29 -50 c32 -56 84 -97 146 -115 26 -7 105 -10 225 -8 206 3 232 10 296
76 62 64 66 88 62 378 -3 250 -4 261 -27 304 -37 72 -68 108 -119 137 -46 27
-51 28 -212 30 -91 1 -179 -2 -196 -6z"/>
<path d="M3961 4650 c-78 -19 -165 -114 -191 -210 -5 -19 -10 -145 -10 -280 0
-271 5 -293 68 -356 62 -62 88 -69 292 -72 122 -2 198 1 225 8 62 19 118 63
148 118 l27 50 0 256 c0 227 -2 261 -19 306 -25 66 -73 124 -129 158 -46 26
-52 27 -212 29 -91 1 -180 -2 -199 -7z"/>
<path d="M3423 3480 c-92 -47 -144 -139 -151 -267 l-4 -81 -327 -5 c-255 -3
-337 -7 -378 -19 -139 -42 -237 -113 -279 -203 -22 -46 -24 -63 -24 -215 0
-152 2 -169 24 -215 41 -88 138 -161 271 -202 56 -17 114 -18 945 -18 831 0
889 1 945 18 133 41 230 114 271 202 22 46 24 63 24 215 0 152 -2 169 -24 215
-41 89 -141 163 -272 201 -49 14 -114 18 -386 21 l-328 5 0 62 c0 209 -162
359 -307 286z"/>
</g>
</svg>
